HIERARCHY
ROOT Hips
{
	OFFSET -3.958830 18.904000 13.208200
	CHANNELS 6 Xposition Yposition Zposition Zrotation Yrotation Xrotation 
	JOINT LHipJoint
	{
		OFFSET 0.000000 0.000000 0.000000
		CHANNELS 3 Zrotation Yrotation Xrotation
		JOINT LeftUpLeg
		{
			OFFSET 1.800000 -1.400000 0.085000
			CHANNELS 3 Zrotation Yrotation Xrotation
			JOINT LeftLeg
			{
				OFFSET 2.215000 -6.000000 0.000000
				CHANNELS 3 Zrotation Yrotation Xrotation
				JOINT LeftFoot
				{
					OFFSET 2.500000 -6.900000 0.000000
					CHANNELS 3 Zrotation Yrotation Xrotation
					JOINT LeftToeBase
					{
						OFFSET 0.200000 -0.500000 1.950000
						CHANNELS 3 Zrotation Yrotation Xrotation
						End Site
						{
							OFFSET 0.000000 0.000000 0.000000
						}
					}
				}
			}
		}
	}
	JOINT RHipJoint
	{
		OFFSET 0.000000 0.000000 0.000000
		CHANNELS 3 Zrotation Yrotation Xrotation
		JOINT RightUpLeg
		{
			OFFSET -1.800000 -1.400000 0.085000
			CHANNELS 3 Zrotation Yrotation Xrotation
			JOINT RightLeg
			{
				OFFSET -2.215000 -6.000000 0.000000
				CHANNELS 3 Zrotation Yrotation Xrotation
				JOINT RightFoot
				{
					OFFSET -2.500000 -6.900000 0.000000
					CHANNELS 3 Zrotation Yrotation Xrotation
					JOINT RightToeBase
					{
						OFFSET -0.200000 -0.500000 1.950000
						CHANNELS 3 Zrotation Yrotation Xrotation
						End Site
						{
							OFFSET 0.000000 0.000000 0.000000
						}
					}
				}
			}
		}
	}
	JOINT LowerBack
	{
		OFFSET 0.000000 0.000000 0.000000
		CHANNELS 3 Zrotation Yrotation Xrotation
		JOINT Spine
		{
			OFFSET -0.087000 1.940000 -0.288900
			CHANNELS 3 Zrotation Yrotation Xrotation
			JOINT Spine1
			{
				OFFSET 0.000000 1.950000 0.060000
				CHANNELS 3 Zrotation Yrotation Xrotation
				JOINT Neck
				{
					OFFSET 0.000000 0.000000 0.000000
					CHANNELS 3 Zrotation Yrotation Xrotation
					JOINT Neck1
					{
						OFFSET 0.000000 1.600000 0.340000
						CHANNELS 3 Zrotation Yrotation Xrotation
						JOINT Head
						{
							OFFSET 0.000000 1.667000 -0.240000
							CHANNELS 3 Zrotation Yrotation Xrotation
							End Site
							{
								OFFSET 0.000000 0.000000 0.000000
							}
						}
					}
				}
				JOINT LeftShoulder
				{
					OFFSET 0.000000 0.000000 0.000000
					CHANNELS 3 Zrotation Yrotation Xrotation
					JOINT LeftArm
					{
						OFFSET 2.700000 1.550000 -0.730000
						CHANNELS 3 Zrotation Yrotation Xrotation
						JOINT LeftForeArm
						{
							OFFSET 5.450000 0.000000 0.000000
							CHANNELS 3 Zrotation Yrotation Xrotation
							JOINT LeftHand
							{
								OFFSET 3.450000 0.000000 0.000000
								CHANNELS 3 Zrotation Yrotation Xrotation
								JOINT LeftHandIndex1
								{
									OFFSET 0.750000 0.000000 0.000000
									CHANNELS 3 Zrotation Yrotation Xrotation
									End Site
									{
										OFFSET 0.000000 0.000000 0.000000
									}
								}
							}
						}
					}
				}
				JOINT RightShoulder
				{
					OFFSET 0.000000 0.000000 0.000000
					CHANNELS 3 Zrotation Yrotation Xrotation
					JOINT RightArm
					{
						OFFSET -2.700000 1.550000 -0.730000
						CHANNELS 3 Zrotation Yrotation Xrotation
						JOINT RightForeArm
						{
							OFFSET -5.450000 0.000000 0.000000
							CHANNELS 3 Zrotation Yrotation Xrotation
							JOINT RightHand
							{
								OFFSET -3.450000 0.000000 0.000000
								CHANNELS 3 Zrotation Yrotation Xrotation
								JOINT RightHandIndex1
								{
									OFFSET -0.750000 0.000000 0.000000
									CHANNELS 3 Zrotation Yrotation Xrotation
									End Site
									{
										OFFSET 0.000000 0.000000 0.000000
									}
								}
							}
						}
					}
				}
			}
		}
	}
}
MOTION
Frames: 14
Frame Time: 0.016667
0.648540 17.040140 -0.557050 -3.808154 -27.863379 9.904901 -15.231559 13.836033 2.343998 13.394386 -1.759885 -10.673726 -5.255546 7.346628 20.331208 -0.215180 5.704180 2.929147 0.256430 -0.022290 0.032660 18.128207 -10.646783 2.640027 -14.588503 0.872382 -22.149114 5.181948 -3.769600 7.930598 0.237703 -3.363267 3.290738 0.209070 0.991760 0.535760 -3.012686 -2.471077 -6.513126 2.660629 -2.378051 2.278107 1.253344 -2.978735 0.242531 1.669128 1.374529 -6.081901 2.413707 2.256469 16.208191 -3.108490 2.918990 5.467230 -2.169635 8.934572 1.220110 -21.625842 3.900907 -2.338346 62.331944 -71.243404 -38.339426 -3.917894 2.673044 -0.146880 0.804120 -0.431780 0.512790 -0.124859 -10.705489 1.534288 28.502449 -11.219265 -9.787849 -32.557233 56.484533 -12.769276 1.723525 -2.300370 -0.261920 0.110220 -0.106310 0.150460 
0.644150 17.039480 -0.556510 -3.863665 -28.009581 9.933664 -15.233096 13.838411 2.337502 13.484733 -1.734521 -10.466424 -5.219574 7.304023 20.117620 -0.215809 5.689006 2.936259 0.264280 -0.014950 0.037350 18.127483 -10.642971 2.641528 -14.505197 0.881157 -22.113346 5.177283 -3.750090 7.852380 0.234624 -3.357894 3.293301 0.212090 0.987280 0.536360 -3.009164 -2.474832 -6.510319 2.712468 -2.410978 2.213326 1.299656 -3.028103 0.335673 1.692944 1.320956 -6.070068 2.323157 2.213647 16.255969 -3.133840 2.805420 5.373450 -2.420453 8.801151 1.182308 -21.238124 4.301460 -2.509200 56.515591 -69.897589 -33.745063 -3.979368 2.931075 -0.144460 0.800320 -0.428660 0.515470 0.088097 -10.517615 1.600667 27.539933 -11.497230 -9.562450 -30.385749 55.287749 -11.554482 1.745822 -2.332303 -0.259010 0.108610 -0.111640 0.150930 
0.635500 17.041450 -0.556710 -3.963616 -28.249254 9.902793 -15.232784 13.847676 2.318801 13.632652 -1.692667 -10.078061 -4.990828 7.189362 19.831298 -0.210585 5.639037 2.950521 0.286450 0.006680 0.060700 18.126226 -10.649068 2.648641 -14.377460 0.878509 -21.970042 5.226697 -3.733410 7.709882 0.220354 -3.348242 3.295106 0.215550 0.958830 0.538190 -3.002944 -2.462739 -6.510751 2.792637 -2.446037 2.171810 1.342000 -3.095290 0.468871 1.780766 1.352374 -6.055177 2.354354 1.988224 16.561767 -3.303540 2.687690 5.083920 -3.019158 8.442860 1.080033 -20.347077 4.726951 -2.650440 46.865043 -66.258420 -25.772269 -4.046162 3.256255 -0.133880 0.781940 -0.407830 0.518190 0.516834 -10.150921 1.753120 26.223543 -11.729319 -9.151322 -27.498006 52.169268 -9.680996 1.800730 -2.361238 -0.245370 0.096090 -0.132360 0.148600 
0.622510 17.042800 -0.555790 -4.008450 -28.577651 9.919354 -15.235402 13.855301 2.300502 13.765692 -1.656648 -9.613353 -4.774062 7.059821 19.404562 -0.200870 5.582148 2.969357 0.300220 0.017060 0.084870 18.122965 -10.643773 2.661978 -14.298800 0.878411 -21.882945 5.307868 -3.703007 7.469536 0.212234 -3.338707 3.294770 0.213110 0.929900 0.538720 -2.990266 -2.462523 -6.513288 2.799355 -2.564232 2.046072 1.373960 -3.264277 0.484379 1.888754 1.438764 -6.051099 2.467662 1.725052 16.884027 -3.595360 2.648090 5.041900 -3.569539 8.081200 0.942258 -19.299672 5.011519 -2.716590 37.380870 -59.603001 -17.417575 -4.102250 3.471870 -0.130480 0.766720 -0.392930 0.514410 0.858188 -9.844771 1.949522 24.992862 -11.669963 -8.533127 -24.584230 47.379754 -7.673921 1.878609 -2.376819 -0.232540 0.077130 -0.150850 0.144180 
0.603710 17.044950 -0.552950 -3.999279 -28.894872 9.945395 -15.241616 13.872630 2.287006 13.893867 -1.626970 -9.116760 -4.533907 6.915158 18.881302 -0.188481 5.527966 2.994701 0.289330 0.000900 0.089430 18.114905 -10.632608 2.673170 -14.248193 0.864844 -21.771354 5.365205 -3.675939 7.203869 0.211460 -3.333243 3.298630 0.195950 0.915420 0.538690 -2.962758 -2.492650 -6.518470 2.623923 -2.689855 1.871163 1.547745 -3.452169 0.495301 1.949358 1.592175 -6.214282 2.690544 1.318210 17.229928 -3.969530 2.570860 5.323990 -3.938784 7.481519 0.933449 -18.425883 5.174031 -2.834346 29.664731 -51.017703 -10.914926 -4.144902 3.561643 -0.128210 0.760030 -0.385890 0.508830 1.104585 -9.374991 2.280435 24.238568 -11.548398 -7.907910 -23.326926 40.634548 -6.188141 1.980681 -2.343788 -0.228570 0.061740 -0.156970 0.142530 
0.584140 17.045960 -0.549570 -3.988940 -29.170302 9.976057 -15.249228 13.888262 2.272983 14.037540 -1.603375 -8.576506 -4.260148 6.746941 18.247550 -0.198047 5.481776 3.018339 0.269500 -0.029750 0.084880 18.106426 -10.607335 2.690322 -14.276211 0.842939 -21.584816 5.585804 -3.671833 6.808579 0.214944 -3.347186 3.298684 0.178790 0.909380 0.533440 -2.936429 -2.543921 -6.524293 2.506933 -2.844734 1.638720 1.732547 -3.672457 0.667331 1.963287 1.690632 -6.483527 2.828194 0.803153 17.550008 -4.375860 2.353290 5.616110 -4.178980 6.735435 0.975571 -17.813785 4.799940 -2.827702 24.331448 -40.491751 -6.520161 -4.196667 3.552304 -0.118760 0.758550 -0.391670 0.497200 1.291194 -8.754580 2.724208 23.629707 -11.511958 -7.214317 -22.902254 33.162217 -5.075398 2.086056 -2.285396 -0.238530 0.054730 -0.148010 0.132970 
0.562900 17.046850 -0.548110 -3.925625 -29.502141 9.868421 -15.255622 13.899854 2.247701 14.133495 -1.563131 -7.938517 -3.897546 6.577622 17.732411 -0.203494 5.442454 3.033942 0.266660 -0.035240 0.091750 18.102316 -10.589525 2.699068 -14.343288 0.796294 -21.325853 5.779194 -3.669117 6.460659 0.208433 -3.367754 3.285744 0.175340 0.895770 0.534530 -2.922439 -2.578450 -6.505190 2.279124 -2.959430 1.346584 1.880438 -3.884498 1.343010 1.899712 1.880978 -6.808885 3.127106 0.321643 17.769752 -4.657890 2.127850 5.533040 -4.520007 5.761598 1.168620 -16.968060 4.431304 -2.636274 20.810013 -30.177519 -3.985049 -4.257359 3.503173 -0.115930 0.753840 -0.388320 0.485600 1.711668 -8.006187 3.112175 23.385334 -11.351424 -6.556191 -23.515479 25.596604 -4.317195 2.204987 -2.227835 -0.236170 0.046830 -0.144000 0.126420 
0.543330 17.051350 -0.549710 -3.957706 -29.875858 9.722767 -15.261576 13.914418 2.232809 14.368223 -1.530506 -7.288792 -3.626009 6.459897 17.263354 -0.197471 5.430335 3.045431 0.267300 -0.041450 0.101520 18.097286 -10.580663 2.696953 -14.269916 0.762198 -21.097364 5.894918 -3.682436 6.320542 0.198945 -3.377029 3.283024 0.167040 0.885340 0.540960 -2.904040 -2.609430 -6.491304 2.066014 -3.023052 1.164989 2.086721 -4.049994 2.117443 1.840820 2.088329 -7.193433 3.443601 -0.161736 18.082904 -4.925510 1.913810 5.494350 -5.146594 4.688585 1.474775 -16.131213 4.240553 -2.299953 18.845609 -21.327723 -2.626396 -4.320454 3.432271 -0.107580 0.749220 -0.379180 0.482360 2.403190 -7.157474 3.506164 23.032148 -11.562533 -5.987939 -24.239310 18.963254 -3.584574 2.317595 -2.184281 -0.231720 0.040190 -0.146610 0.122390 
0.524970 17.053430 -0.550930 -4.020060 -30.267463 9.663018 -15.269193 13.907185 2.217960 14.627001 -1.510814 -6.713745 -3.505674 6.389857 16.819501 -0.209916 5.448502 3.041307 0.275270 -0.033200 0.109070 18.097641 -10.560666 2.689357 -14.119739 0.755656 -20.890871 5.943225 -3.656115 6.102887 0.195784 -3.396282 3.267813 0.181360 0.883790 0.549560 -2.902058 -2.625781 -6.456335 1.924359 -3.090355 0.863862 2.195759 -4.231453 3.042010 1.794900 2.320193 -7.438153 3.843227 -0.501412 17.972670 -5.203250 1.763450 5.334370 -5.672241 3.893090 1.755763 -15.396369 4.096927 -1.856991 17.508195 -14.331895 -1.821659 -4.397757 3.384716 -0.112140 0.757730 -0.382400 0.477950 2.976470 -6.627586 3.690409 22.815357 -11.511211 -5.466450 -24.629469 13.196866 -2.845610 2.408175 -2.172895 -0.232900 0.035180 -0.144420 0.117540 
0.507050 17.057550 -0.553520 -4.055093 -30.763435 9.620413 -15.274745 13.903943 2.213364 14.833742 -1.489145 -6.176494 -3.441609 6.342545 16.394354 -0.216900 5.463850 3.039203 0.276360 -0.029610 0.110060 18.097424 -10.544874 2.683936 -13.990111 0.755482 -20.862620 5.972862 -3.640716 6.036495 0.196697 -3.395463 3.262888 0.189740 0.883580 0.548070 -2.898353 -2.642225 -6.436611 1.798878 -3.148900 0.702941 2.269895 -4.358698 3.628685 1.729238 2.443020 -7.608716 4.058597 -0.754924 17.906345 -5.278860 1.550990 5.141610 -6.102386 3.382291 1.964710 -14.810481 4.111875 -1.489358 16.497348 -9.211328 -1.301970 -4.457059 3.342018 -0.113390 0.759720 -0.386130 0.471950 3.505706 -6.265851 3.810681 22.583330 -11.723085 -5.152880 -24.980370 9.205187 -2.233104 2.472967 -2.162096 -0.236550 0.039150 -0.138450 0.114480 
0.491130 17.062230 -0.555060 -4.221725 -31.238140 9.677357 -15.277531 13.895687 2.213831 15.150305 -1.493766 -5.722376 -3.442344 6.326722 16.013794 -0.210824 5.488867 3.035859 0.274490 -0.032840 0.112550 18.098830 -10.530049 2.682341 -13.757473 0.781484 -20.862892 6.026498 -3.625840 5.981193 0.199167 -3.390185 3.262263 0.190080 0.884300 0.550370 -2.900491 -2.646267 -6.428808 1.886977 -3.232099 0.595616 2.232056 -4.490739 3.998392 1.740969 2.571809 -7.723398 4.279327 -0.965474 17.857043 -5.405190 1.462190 5.205410 -6.489205 3.027040 2.110180 -14.329183 4.184451 -1.235305 15.854983 -5.503894 -0.952657 -4.503770 3.317865 -0.118620 0.763570 -0.389710 0.468360 3.843744 -6.072483 3.902370 22.573453 -12.127903 -5.057556 -25.336795 6.968753 -1.854962 2.514181 -2.165519 -0.236570 0.035750 -0.137060 0.113500 
0.476960 17.065380 -0.557730 -4.363931 -31.660907 9.718240 -15.279777 13.893418 2.210463 15.402185 -1.515485 -5.386021 -3.404062 6.322692 15.851953 -0.205291 5.515519 3.031958 0.279260 -0.029390 0.115350 18.100171 -10.514173 2.684135 -13.539549 0.802519 -20.851506 6.053862 -3.593934 5.859689 0.201153 -3.384121 3.265095 0.194950 0.886210 0.550350 -2.903275 -2.661910 -6.422264 2.000530 -3.364840 0.526277 2.149053 -4.647734 4.264253 1.723000 2.648279 -7.763246 4.400263 -1.063929 17.829612 -5.352180 1.348500 5.290240 -6.811342 2.808081 2.190347 -13.832868 4.201098 -1.030487 15.297574 -2.798806 -0.709928 -4.532875 3.305587 -0.122630 0.765480 -0.393560 0.471170 4.188184 -5.984412 3.929119 22.550982 -12.543568 -5.048819 -25.782893 5.836868 -1.662495 2.536404 -2.179056 -0.237440 0.033860 -0.141780 0.114620 
0.463310 17.068370 -0.561010 -4.463431 -32.083934 9.723211 -15.285650 13.892918 2.215215 15.637211 -1.535912 -5.067122 -3.446833 6.339919 15.676478 -0.193906 5.539428 3.024772 0.287510 -0.025590 0.127580 18.096756 -10.496413 2.684254 -13.364447 0.815698 -20.828606 6.081701 -3.571802 5.760573 0.197834 -3.373237 3.266399 0.194150 0.876040 0.552970 -2.890779 -2.687676 -6.425490 1.967826 -3.461831 0.502364 2.177214 -4.777737 4.456528 1.740532 2.771960 -7.810283 4.572975 -1.156872 17.964307 -5.364390 1.346560 5.329130 -7.147275 2.576083 2.271773 -13.437496 4.307490 -0.918398 15.007128 -0.986643 -0.548770 -4.543672 3.302696 -0.119790 0.759770 -0.388640 0.470470 4.487682 -5.895359 3.969275 22.447370 -12.909266 -5.044507 -26.063725 5.117993 -1.524385 2.555763 -2.188514 -0.232580 0.023990 -0.150320 0.112200 
0.451110 17.070650 -0.563170 -4.517763 -32.542858 9.690069 -15.290496 13.896035 2.220316 15.795418 -1.541362 -4.747327 -3.487532 6.366450 15.573444 -0.182543 5.557945 3.017957 0.296230 -0.017680 0.138940 18.092988 -10.483522 2.685832 -13.233666 0.817582 -20.805054 6.098834 -3.550552 5.671880 0.192789 -3.357330 3.269802 0.194490 0.862850 0.548450 -2.876970 -2.710642 -6.432737 1.915832 -3.534360 0.525598 2.216866 -4.862277 4.493397 1.744580 2.851044 -7.801429 4.657785 -1.161031 18.195479 -5.261440 1.358100 5.266680 -7.478968 2.460570 2.291327 -13.034420 4.417592 -0.844259 14.798456 0.112075 -0.447634 -4.538351 3.299325 -0.112560 0.747520 -0.380600 0.469970 4.821835 -5.868260 3.965733 22.159662 -13.146901 -5.000930 -26.360210 4.531307 -1.397470 2.575198 -2.191422 -0.229570 0.019830 -0.159590 0.110320 
